<svg id="Layer_1" data-name="Layer 1" xmlns="http://www.w3.org/2000/svg" viewBox="0 0 31 31"><defs><style>.cls-1{fill:none;}.cls-2{fill:#1479ff;}</style></defs><g id="Group_726" data-name="Group 726"><path id="Path_638" data-name="Path 638" class="cls-1" d="M1.65,1.58H30V29.93H1.65Z"/><path id="Path_639" data-name="Path 639" class="cls-2" d="M22.27,5.12h4.19V9.28L20,15.74l3.34,3.35L25,17.41l1.68,1.68L23.76,22l3.34,3.35L25.43,27l-3.34-3.35-2.93,2.93-1.67-1.67,1.67-1.67-3.34-3.35-3.34,3.35,1.67,1.67-1.67,1.67L9.55,23.68,6.21,27,4.54,25.36,7.88,22,5,19.09l1.68-1.68L8.3,19.09l3.34-3.35L5.19,9.29V5.12H9.38l6.44,6.44Zm-9,12.29L10,20.76l.84.83,3.34-3.34ZM24.1,7.48h-.85l-5.76,5.76.84.83L24.1,8.3Zm-16.54,0v.83L20.83,21.59l.84-.83L8.4,7.48Z"/></g></svg>