<svg id="Layer_1" data-name="Layer 1" xmlns="http://www.w3.org/2000/svg" viewBox="0 0 30.92 30.92"><defs><style>.cls-1{fill:#fff;fill-rule:evenodd;}</style></defs><path class="cls-1" d="M16.17,3.58A12.88,12.88,0,0,0,5.79,24.09a11.7,11.7,0,0,1,6-5.49,6.46,6.46,0,1,1,8.8,0,11.7,11.7,0,0,1,6,5.49A12.88,12.88,0,0,0,16.17,3.58Zm8.48,22.58a9.08,9.08,0,0,0-17,0,12.9,12.9,0,0,0,17,0ZM.71,16.46a15.47,15.47,0,1,1,4.59,11A15.46,15.46,0,0,1,.71,16.46ZM16.17,10a3.87,3.87,0,1,0,3.89,3.86A3.88,3.88,0,0,0,16.17,10Z" transform="translate(-0.71 -1)"/></svg>