<svg id="Layer_1" data-name="Layer 1" xmlns="http://www.w3.org/2000/svg" viewBox="0 0 32 32"><defs><style>.cls-1{fill:#1479ff;}</style></defs><path class="cls-1" d="M3.56,23.66v4.77a.53.53,0,0,0,.53.53H7.78a.53.53,0,0,0,.53-.53V20.05L5.63,22.72A3.21,3.21,0,0,1,3.56,23.66Z"/><path class="cls-1" d="M10.14,20v8.44a.54.54,0,0,0,.54.53h3.68a.53.53,0,0,0,.53-.53v-5a3.25,3.25,0,0,1-2.22-.94Z"/><path class="cls-1" d="M16.72,22.93v5.5a.54.54,0,0,0,.54.53h3.68a.53.53,0,0,0,.53-.53V18.29l-4.22,4.22A3.06,3.06,0,0,1,16.72,22.93Z"/><path class="cls-1" d="M27.69,12.06l-4.38,4.39v12a.53.53,0,0,0,.53.53h3.68a.53.53,0,0,0,.53-.53v-16l-.28-.25Z"/><path class="cls-1" d="M30.71,4.28A1.06,1.06,0,0,0,29.93,4h-.1l-5.14.24a1.13,1.13,0,0,0-.79.27.75.75,0,0,0-.18.28A.89.89,0,0,0,24,5.87l.43.43.9.9L15,17.57,10.3,12.91a1.47,1.47,0,0,0-1.05-.43,1.43,1.43,0,0,0-1,.43L2,19.11A1.47,1.47,0,0,0,2,21.2l.27.28a1.48,1.48,0,0,0,1.05.43,1.47,1.47,0,0,0,1-.43l4.87-4.87,4.66,4.65A1.46,1.46,0,0,0,15,21.7,1.51,1.51,0,0,0,16,21.26L27.69,9.57,29,10.89a1,1,0,0,0,.7.37.89.89,0,0,0,.43-.11A1.64,1.64,0,0,0,30.4,11a1.21,1.21,0,0,0,.32-.85c.05-1.11.1-2.22.16-3.34L31,5.1A1.08,1.08,0,0,0,30.71,4.28Z"/></svg>