<svg id="Layer_1" data-name="Layer 1" xmlns="http://www.w3.org/2000/svg" viewBox="0 0 31 31"><defs><style>.cls-1{fill:#fff;}</style></defs><path id="Path_640" data-name="Path 640" class="cls-1" d="M27.85,8.2l-5.49.47a.15.15,0,0,0-.13.16.12.12,0,0,0,.05.09l1.38,1.31-.31.31-.2.21-1,1.08-1.2,1.27-.85.92c-.68.74-1.34,1.49-2,2.24-.33.38-.65.76-1,1.15l-.26.31-.34-.2-5.35-3L10.28,14l-.61.67-.77.83-6,6.57,1.27,1.24L10.66,17h0l3.83,2.49,2,1.27.71.45.16.11.92-.81c.38-.33.75-.67,1.11-1l1.09-1c.72-.7,1.43-1.4,2.13-2.12S24,15,24.64,14.23l1-1.1L25.8,13l.36-.39,1.32,1.25a.15.15,0,0,0,.21,0,.25.25,0,0,0,0-.09L28,8.35a.15.15,0,0,0-.14-.15h0Z"/></svg>