<svg id="Layer_1" data-name="Layer 1" xmlns="http://www.w3.org/2000/svg" viewBox="0 0 31 31"><defs><style>.cls-1{fill:none;stroke:#1479ff;stroke-linecap:round;stroke-linejoin:round;}</style></defs><g id="Group_727" data-name="Group 727"><ellipse id="Ellipse_4" data-name="Ellipse 4" class="cls-1" cx="15.04" cy="15.89" rx="3.89" ry="4.32"/><path id="Path_641" data-name="Path 641" class="cls-1" d="M27,10.32,26,8.6a2,2,0,0,0-2.72-.73h0l-.52.31a3,3,0,0,1-4.08-1.09,3,3,0,0,1-.4-1.5V5a2,2,0,0,0-2-2h-2a2,2,0,0,0-2,2h0v.6a3,3,0,0,1-3,3,2.87,2.87,0,0,1-1.49-.4l-.53-.3a2,2,0,0,0-2.71.73h0l-1,1.72A2,2,0,0,0,4.34,13h0l.53.3a3,3,0,0,1,0,5.17l-.53.3a2,2,0,0,0-.72,2.71h0l1,1.72A2,2,0,0,0,7.32,24h0l.52-.31a3,3,0,0,1,4.07,1.1,2.87,2.87,0,0,1,.4,1.49v.6a2,2,0,0,0,2,2h2a2,2,0,0,0,2-2v-.6a3,3,0,0,1,3-3,3,3,0,0,1,1.49.4l.52.31A2,2,0,0,0,26,23.26h0l1-1.72a2,2,0,0,0-.72-2.72h0l-.52-.3a3,3,0,0,1,0-5.17l.52-.3A2,2,0,0,0,27,10.33Z"/></g></svg>